<svg xmlns="http://www.w3.org/2000/svg" width="160" height="48" fill="none"><path fill="#000" d="M28.44 19.56 24 21.78l4.44-2.22ZM24 21.78l-4.44-2.22L24 21.78Zm0 0v5.56-5.56Zm17.78-8.9-4.44 2.22 4.44-2.22Zm0 0-4.44-2.22 4.44 2.22Zm0 0v5.56-5.56ZM28.44 6.22 24 4l-4.44 2.22h8.88ZM6.22 12.88l4.44-2.22-4.44 2.22Zm0 0 4.44 2.22-4.44-2.22Zm0 0v5.56-5.56ZM24 44l-4.44-2.22L24 44Zm0 0 4.44-2.22L24 44Zm0 0v-5.56V44Zm-13.34-6.66-4.44-2.22v-5.56l4.44 7.78Zm26.68 0 4.44-2.22v-5.56"/><path stroke="#000" stroke-linecap="round" stroke-linejoin="round" stroke-width="1.5" d="m37.34 37.34 4.44-2.22v-5.56m-13.34-10L24 21.78l4.44-2.22ZM24 21.78l-4.44-2.22L24 21.78Zm0 0v5.56-5.56Zm17.78-8.9-4.44 2.22 4.44-2.22Zm0 0-4.44-2.22 4.44 2.22Zm0 0v5.56-5.56ZM28.44 6.22 24 4l-4.44 2.22h8.88ZM6.22 12.88l4.44-2.22-4.44 2.22Zm0 0 4.44 2.22-4.44-2.22Zm0 0v5.56-5.56ZM24 44l-4.44-2.22L24 44Zm0 0 4.44-2.22L24 44Zm0 0v-5.56V44Zm-13.34-6.66-4.44-2.22v-5.56l4.44 7.78Z"/><path fill="#000" d="M72.875 8.125v8.5H70.75v2.125h-2.125v2.125h-8.5V18.75H58V8.125h2.125V6H70.75v2.125h2.125Zm-4.25 0H62.25V18.75h4.25v-2.125h-2.125V14.5h4.25V8.125Zm2.125 12.75V18.75h2.125v2.125H70.75Zm6.375 0V18.75H75v-8.5h4.25v8.5h6.375v-8.5h4.25v10.625h-12.75Zm17 0V18.75H92v-6.375h2.125V10.25h10.625v2.125h2.125v4.25H96.25v2.125h8.5v2.125H94.125ZM96.25 14.5h6.375v-2.125H96.25V14.5Zm19.125-2.125h2.125V14.5h-2.125v6.375h-4.25V10.25h4.25v2.125Zm8.5-2.125v2.125H117.5V10.25h6.375Zm4.25 12.75v-2.125h8.5V18.75h-8.5v-2.125H126V10.25h4.25v6.375h6.375V10.25h4.25v10.625h-2.125V23h-10.625ZM58 40.875V26h12.75v2.125h2.125v4.25H70.75V34.5h2.125v4.25H70.75v2.125H58Zm4.25-8.5h6.375v-4.25H62.25v4.25Zm0 6.375h6.375V34.5H62.25v4.25Zm19.125-6.375H83.5V34.5h-2.125v6.375h-4.25V30.25h4.25v2.125Zm8.5-2.125v2.125H83.5V30.25h6.375Zm8.5-2.125V26h4.25v2.125h-4.25Zm-4.25 12.75V38.75h4.25v-6.375H96.25V30.25h6.375v8.5h4.25v2.125h-12.75Zm17 0V38.75H109v-6.375h2.125V30.25h8.5V26h4.25v14.875h-12.75Zm2.125-2.125h6.375v-6.375h-6.375v6.375ZM128.125 43v-2.125h8.5V38.75h-8.5v-2.125H126v-4.25h2.125V30.25h12.75v10.625h-2.125V43h-10.625Zm2.125-6.375h6.375v-4.25h-6.375v4.25Zm14.875 4.25V38.75H143v-6.375h2.125V30.25h10.625v2.125h2.125v4.25H147.25v2.125h8.5v2.125h-10.625Zm2.125-6.375h6.375v-2.125h-6.375V34.5Z"/></svg>