<svg xmlns="http://www.w3.org/2000/svg" width="20" height="20" viewBox="0 0 20 20" fill="none">
  <path d="M16.6667 11.6667C17.5871 11.6667 18.3333 10.9205 18.3333 10C18.3333 9.07952 17.5871 8.33333 16.6667 8.33333C15.7462 8.33333 15 9.07952 15 10C15 10.9205 15.7462 11.6667 16.6667 11.6667Z" stroke="#747579" stroke-width="1.5" stroke-linecap="round" stroke-linejoin="round"/>
  <path d="M16.6667 5.00001C17.5871 5.00001 18.3333 4.25381 18.3333 3.33334C18.3333 2.41286 17.5871 1.66667 16.6667 1.66667C15.7462 1.66667 15 2.41286 15 3.33334C15 4.25381 15.7462 5.00001 16.6667 5.00001Z" stroke="#747579" stroke-width="1.5" stroke-linecap="round" stroke-linejoin="round"/>
  <path d="M16.6667 18.3333C17.5871 18.3333 18.3333 17.5871 18.3333 16.6667C18.3333 15.7462 17.5871 15 16.6667 15C15.7462 15 15 15.7462 15 16.6667C15 17.5871 15.7462 18.3333 16.6667 18.3333Z" stroke="#747579" stroke-width="1.5" stroke-linecap="round" stroke-linejoin="round"/>
  <path d="M3.33317 11.6667C4.25365 11.6667 4.99984 10.9205 4.99984 10C4.99984 9.07952 4.25365 8.33333 3.33317 8.33333C2.4127 8.33333 1.6665 9.07952 1.6665 10C1.6665 10.9205 2.4127 11.6667 3.33317 11.6667Z" stroke="#747579" stroke-width="1.5" stroke-linecap="round" stroke-linejoin="round"/>
  <path d="M5 10H15" stroke="#747579" stroke-width="1.5" stroke-linecap="round" stroke-linejoin="round"/>
  <path d="M14.9998 3.33333H11.6665C9.99984 3.33333 9.1665 4.16666 9.1665 5.83333V14.1667C9.1665 15.8333 9.99984 16.6667 11.6665 16.6667H14.9998" stroke="#747579" stroke-width="1.5" stroke-linecap="round" stroke-linejoin="round"/>
</svg>