<svg xmlns="http://www.w3.org/2000/svg" width="16" height="16" fill="none"><path stroke="#2D2E32" stroke-linecap="round" stroke-linejoin="round" stroke-width="1.5" d="M4.667 5.333h-2c-.734 0-1.334-.6-1.334-1.333V2.667c0-.734.6-1.334 1.334-1.334h2C5.4 1.333 6 1.933 6 2.667V4c0 .733-.6 1.333-1.333 1.333ZM13.867 4.667h-2.4c-.44 0-.8-.36-.8-.8V2.8c0-.44.36-.8.8-.8h2.4c.44 0 .8.36.8.8v1.067c0 .44-.36.8-.8.8ZM13.867 9.667h-2.4c-.44 0-.8-.36-.8-.8V7.8c0-.44.36-.8.8-.8h2.4c.44 0 .8.36.8.8v1.067c0 .44-.36.8-.8.8Z"/><path stroke="#2D2E32" stroke-linecap="round" stroke-linejoin="round" stroke-miterlimit="10" stroke-width="1.5" d="M6 3.333h4.667"/><path fill="#fff" d="M8.333 3.333V12c0 .733.6 1.333 1.334 1.333h1"/><path stroke="#2D2E32" stroke-linecap="round" stroke-linejoin="round" stroke-miterlimit="10" stroke-width="1.5" d="M8.333 3.333V12c0 .733.6 1.333 1.334 1.333h1M8.333 8.333h2.334"/><path stroke="#2D2E32" stroke-linecap="round" stroke-linejoin="round" stroke-width="1.5" d="M13.867 14.667h-2.4c-.44 0-.8-.36-.8-.8V12.8c0-.44.36-.8.8-.8h2.4c.44 0 .8.36.8.8v1.067c0 .44-.36.8-.8.8Z"/></svg>