<svg xmlns="http://www.w3.org/2000/svg" width="17" height="16" fill="none"><path stroke="#2D2E32" stroke-miterlimit="10" d="m14.947 9.533-.267 3.334c-.1 1.02-.18 1.8-1.987 1.8H4.307c-1.807 0-1.887-.78-1.987-1.8l-.267-3.334a2.02 2.02 0 0 1 .434-1.46L2.5 8.06c.367-.447.92-.727 1.54-.727h8.92a1.976 1.976 0 0 1 1.54.734c.327.393.507.906.447 1.466Z"/><path stroke="#2D2E32" stroke-linecap="round" stroke-linejoin="round" stroke-miterlimit="10" d="M2.833 7.62V4.187c0-2.267.567-2.834 2.834-2.834h.846c.847 0 1.04.254 1.36.68l.847 1.134c.213.28.34.453.907.453h1.7c2.266 0 2.833.567 2.833 2.833v1.194M6.787 11.333h3.426"/></svg>