<svg xmlns="http://www.w3.org/2000/svg" width="16" height="16" fill="none"><path stroke="#2D2E32" stroke-linecap="round" stroke-linejoin="round" stroke-miterlimit="10" stroke-width="1.5" d="M13.193 9.953A5.05 5.05 0 0 1 8.127 11.2l-3.14 3.133c-.227.234-.674.374-.994.327l-1.453-.2c-.48-.067-.927-.52-1-1l-.2-1.453c-.047-.32.107-.767.327-.994L4.8 7.88a5.046 5.046 0 0 1 8.387-5.067 5.052 5.052 0 0 1 .006 7.14ZM4.593 11.66l1.534 1.533"/><path stroke="#2D2E32" stroke-linecap="round" stroke-linejoin="round" stroke-width="1.5" d="M9.667 7.333a1 1 0 1 0 0-2 1 1 0 0 0 0 2Z"/></svg>