<svg xmlns="http://www.w3.org/2000/svg" width="42" height="42" fill="none"><rect width="41" height="41" x=".5" y=".5" fill="#DEDEDF" rx="20.5"/><path stroke="#161619" stroke-linecap="round" stroke-miterlimit="10" stroke-width="1.5" d="M21 15.44v3.33M21.02 11c-3.68 0-6.66 2.98-6.66 6.66v2.1c0 .68-.28 1.7-.63 2.28l-1.27 2.12c-.78 1.31-.24 2.77 1.2 3.25a23.34 23.34 0 0 0 14.73 0 2.22 2.22 0 0 0 1.2-3.25l-1.27-2.12c-.35-.58-.63-1.61-.63-2.28v-2.1C27.68 14 24.68 11 21.02 11Z"/><path stroke="#2D2E32" stroke-miterlimit="10" stroke-width="1.5" d="M24.33 27.82c0 1.83-1.5 3.33-3.33 3.33-.91 0-1.75-.38-2.35-.98-.6-.6-.98-1.44-.98-2.35"/><rect width="41" height="41" x=".5" y=".5" stroke="#C9C9CB" rx="20.5"/></svg>