<svg xmlns="http://www.w3.org/2000/svg" width="16" height="16" fill="none"><path stroke="#2D2E32" stroke-linecap="round" stroke-linejoin="round" stroke-width="1.5" d="M12.667 10.667V4.333c0-.733-.6-1.333-1.334-1.333H7.667"/><path stroke="#2D2E32" stroke-linecap="round" stroke-linejoin="round" stroke-width="1.5" d="M9.333 1.333 7.333 3l2 1.667M12.667 14.667a2 2 0 1 0 0-4 2 2 0 0 0 0 4ZM3.333 5.333v6.334c0 .733.6 1.333 1.334 1.333h3.666"/><path stroke="#2D2E32" stroke-linecap="round" stroke-linejoin="round" stroke-width="1.5" d="m6.667 14.667 2-1.667-2-1.667M3.333 5.333a2 2 0 1 0 0-4 2 2 0 0 0 0 4Z"/></svg>